<?xml version="1.0" encoding="UTF-8"?>
<svg width="231px" height="48px" viewBox="0 0 231 48" version="1.1" xmlns="http://www.w3.org/2000/svg" xmlns:xlink="http://www.w3.org/1999/xlink">
    <title>auth-logo</title>
    <defs>
        <path d="M0.320366133,1 L0.320366133,1.4622824 C0.320366133,2.01456715 0.768081383,2.4622824 1.32036613,2.4622824 L8.19862667,2.4622824 C8.75091142,2.4622824 9.19862667,2.90999765 9.19862667,3.4622824 C9.19862667,3.66807749 9.13513364,3.8688612 9.01681031,4.03723938 L0.181816357,16.609741 C0.0634930338,16.7781192 2.66453526e-15,16.9789029 2.77555756e-15,17.184698 L0,18 C1.11022302e-16,18.5522847 0.44771525,19 1,19 L13,19 C13.5522847,19 14,18.5522847 14,18 L14,17.5377176 C14,16.9854329 13.5522847,16.5377176 13,16.5377176 L5.25461796,16.5377176 C4.70233321,16.5377176 4.25461796,16.0900024 4.25461796,15.5377176 C4.25461796,15.3322322 4.31792027,15.1317352 4.43591295,14.9635033 L13.3061192,2.31651438 C13.4241119,2.14828243 13.4874142,1.94778548 13.4874142,1.74230005 L13.4874142,1 C13.4874142,0.44771525 13.0396989,-2.22044605e-16 12.4874142,0 L1.32036613,0 C0.768081383,1.11022302e-16 0.320366133,0.44771525 0.320366133,1 Z" id="path-1"></path>
        <filter x="-100.0%" y="-52.6%" width="300.0%" height="247.4%" filterUnits="objectBoundingBox" id="filter-2">
            <feOffset dx="0" dy="4" in="SourceAlpha" result="shadowOffsetOuter1"></feOffset>
            <feGaussianBlur stdDeviation="4" in="shadowOffsetOuter1" result="shadowBlurOuter1"></feGaussianBlur>
            <feColorMatrix values="0 0 0 0 1   0 0 0 0 1   0 0 0 0 1  0 0 0 0.25 0" type="matrix" in="shadowBlurOuter1"></feColorMatrix>
        </filter>
    </defs>
    <g id="auth-logo" stroke="none" fill="none" fill-rule="evenodd" stroke-width="1">
        <g id="React-Admin" fill="#FFFFFF" transform="translate(61, 9)" fill-rule="nonzero">
            <path d="M1.47,7.006 L1.47,22 L3.927,22 L3.927,15.889 L7.812,15.889 C8.652,15.889 9.303,16.057 9.744,16.435 C10.164,16.792 10.416,17.38 10.5,18.199 L10.689,20.047 C10.773,20.887 10.983,21.538 11.34,22 L14.007,22 C13.503,21.454 13.188,20.719 13.104,19.795 L12.852,17.38 C12.684,15.91 11.949,15.049 10.647,14.755 L10.647,14.713 C11.445,14.503 12.096,14.062 12.558,13.39 C12.978,12.781 13.188,12.088 13.188,11.311 C13.188,9.883 12.705,8.791 11.781,8.035 C10.899,7.342 9.681,7.006 8.148,7.006 L1.47,7.006 Z M3.927,9.106 L7.812,9.106 C8.82,9.106 9.555,9.274 10.017,9.652 C10.479,10.009 10.71,10.597 10.71,11.416 C10.71,12.172 10.479,12.76 10.017,13.18 C9.513,13.579 8.778,13.789 7.812,13.789 L3.927,13.789 L3.927,9.106 Z" id="形状"></path>
            <path d="M20.517,10.849 C18.9,10.849 17.619,11.395 16.695,12.508 C15.729,13.6 15.267,14.944 15.267,16.561 C15.267,18.367 15.771,19.774 16.779,20.803 C17.724,21.79 19.005,22.294 20.622,22.294 C22.071,22.294 23.268,21.874 24.234,21.055 C24.99,20.383 25.494,19.522 25.746,18.514 L23.352,18.514 C23.058,19.123 22.743,19.564 22.386,19.837 C21.924,20.173 21.336,20.341 20.601,20.341 C19.74,20.341 19.068,20.068 18.606,19.543 C18.144,19.018 17.871,18.241 17.787,17.233 L25.914,17.233 C25.914,15.28 25.473,13.747 24.612,12.655 C23.667,11.437 22.302,10.849 20.517,10.849 Z M20.58,12.802 C22.26,12.802 23.205,13.663 23.415,15.427 L17.829,15.427 C17.976,14.566 18.27,13.915 18.711,13.474 C19.173,13.012 19.782,12.802 20.58,12.802 Z" id="形状"></path>
            <path d="M32.739,10.849 C31.353,10.849 30.261,11.08 29.463,11.584 C28.518,12.13 27.93,13.012 27.699,14.209 L30.072,14.398 C30.198,13.831 30.513,13.411 30.975,13.138 C31.374,12.886 31.899,12.781 32.571,12.781 C34.125,12.781 34.902,13.474 34.902,14.902 L34.902,15.322 L32.529,15.385 C30.933,15.427 29.694,15.763 28.812,16.393 C27.846,17.044 27.384,17.989 27.384,19.207 C27.384,20.11 27.72,20.845 28.392,21.433 C29.043,22 29.925,22.294 31.059,22.294 C32.004,22.294 32.823,22.126 33.516,21.811 C34.125,21.517 34.65,21.118 35.07,20.572 L35.07,22 L37.296,22 L37.296,15.07 C37.296,13.747 36.96,12.739 36.288,12.046 C35.532,11.248 34.335,10.849 32.739,10.849 Z M34.902,17.044 L34.902,17.59 C34.902,18.43 34.566,19.123 33.936,19.669 C33.306,20.194 32.529,20.467 31.605,20.467 C31.08,20.467 30.66,20.32 30.324,20.068 C29.988,19.816 29.841,19.501 29.841,19.123 C29.841,17.821 30.786,17.149 32.697,17.107 L34.902,17.044 Z" id="形状"></path>
            <path d="M44.688,10.849 C42.987,10.849 41.664,11.416 40.719,12.55 C39.837,13.579 39.396,14.923 39.396,16.561 C39.396,18.241 39.837,19.606 40.74,20.656 C41.664,21.748 42.966,22.294 44.646,22.294 C46.053,22.294 47.187,21.937 48.027,21.244 C48.888,20.53 49.455,19.438 49.707,17.968 L47.334,17.968 C47.145,19.543 46.263,20.341 44.667,20.341 C43.743,20.341 43.05,20.005 42.588,19.354 C42.084,18.682 41.853,17.737 41.853,16.54 C41.853,15.364 42.105,14.44 42.609,13.789 C43.113,13.117 43.806,12.802 44.688,12.802 C45.402,12.802 45.99,12.97 46.431,13.306 C46.851,13.642 47.145,14.146 47.292,14.839 L49.665,14.839 C49.455,13.474 48.909,12.466 48.048,11.794 C47.208,11.164 46.095,10.849 44.688,10.849 Z" id="路径"></path>
            <path d="M54.999,7.636 L52.605,8.623 L52.605,11.143 L50.652,11.143 L50.652,13.117 L52.605,13.117 L52.605,19.249 C52.605,20.131 52.815,20.782 53.235,21.244 C53.676,21.748 54.369,22 55.314,22 L57.141,22 L57.141,20.026 L55.713,20.026 C55.461,20.026 55.293,19.963 55.167,19.837 C55.041,19.69 54.999,19.501 54.999,19.249 L54.999,13.117 L57.414,13.117 L57.414,11.143 L54.999,11.143 L54.999,7.636 Z" id="路径"></path>
            <path d="M70.665,7.006 L64.932,22 L67.557,22 L68.922,18.241 L75.201,18.241 L76.566,22 L79.191,22 L73.458,7.006 L70.665,7.006 Z M69.657,16.225 L72.03,9.652 L72.114,9.652 L74.466,16.225 L69.657,16.225 Z" id="形状"></path>
            <path d="M88.179,6.712 L88.179,12.634 C87.276,11.437 86.205,10.849 84.945,10.849 C83.391,10.849 82.152,11.416 81.27,12.55 C80.43,13.6 80.031,14.923 80.031,16.519 C80.031,18.178 80.451,19.543 81.291,20.593 C82.194,21.727 83.454,22.294 85.071,22.294 C86.499,22.294 87.591,21.811 88.347,20.845 L88.347,22 L90.573,22 L90.573,6.712 L88.179,6.712 Z M85.512,12.781 C86.268,12.781 86.919,13.096 87.423,13.726 C87.969,14.398 88.263,15.322 88.263,16.477 L88.263,16.645 C88.263,17.695 88.032,18.577 87.591,19.249 C87.087,19.984 86.352,20.362 85.428,20.362 C84.357,20.362 83.58,19.984 83.097,19.228 C82.677,18.598 82.488,17.695 82.488,16.519 C82.488,15.343 82.698,14.461 83.139,13.852 C83.643,13.138 84.42,12.781 85.512,12.781 Z" id="形状"></path>
            <path d="M98.427,10.849 C97.377,10.849 96.39,11.311 95.487,12.256 L95.487,11.143 L93.093,11.143 L93.093,22 L95.487,22 L95.487,15.49 C95.487,14.776 95.697,14.146 96.117,13.642 C96.537,13.096 97.083,12.844 97.776,12.844 C99.204,12.844 99.918,13.663 99.918,15.322 L99.918,22 L102.312,22 L102.312,15.364 C102.312,14.566 102.501,13.957 102.921,13.516 C103.32,13.054 103.803,12.844 104.391,12.844 C105.231,12.844 105.819,13.033 106.197,13.432 C106.554,13.81 106.743,14.44 106.743,15.301 L106.743,22 L109.137,22 L109.137,14.881 C109.137,13.684 108.759,12.718 108.045,11.962 C107.289,11.206 106.365,10.849 105.252,10.849 C104.517,10.849 103.908,10.975 103.425,11.227 C102.879,11.479 102.354,11.941 101.85,12.613 C101.157,11.437 100.023,10.849 98.427,10.849 Z" id="路径"></path>
            <path d="M113.274,6.712 C112.812,6.712 112.434,6.859 112.119,7.153 C111.804,7.447 111.657,7.825 111.657,8.287 C111.657,8.749 111.804,9.127 112.119,9.442 C112.434,9.736 112.812,9.883 113.274,9.883 C113.736,9.883 114.114,9.736 114.429,9.442 C114.744,9.148 114.912,8.749 114.912,8.287 C114.912,7.825 114.744,7.447 114.45,7.153 C114.135,6.859 113.736,6.712 113.274,6.712 Z M112.077,11.143 L112.077,22 L114.471,22 L114.471,11.143 L112.077,11.143 Z" id="形状"></path>
            <path d="M123.039,10.849 C122.388,10.849 121.8,10.975 121.254,11.248 C120.729,11.5 120.246,11.899 119.826,12.403 L119.826,11.143 L117.432,11.143 L117.432,22 L119.826,22 L119.826,15.469 C119.91,14.608 120.204,13.936 120.708,13.474 C121.149,13.054 121.674,12.844 122.262,12.844 C123.9,12.844 124.719,13.726 124.719,15.511 L124.719,22 L127.113,22 L127.113,15.301 C127.113,12.319 125.748,10.849 123.039,10.849 Z" id="路径"></path>
        </g>
        <g id="编组" transform="translate(5, 2)">
            <path d="M0,11.3157859 C0,5.06624656 4.94842688,0 11.0526281,0 L30.9473063,0 C37.0516125,0 42,5.06624656 42,11.3157859 L42,31.6841469 C42,37.9337937 37.0516125,43 30.9473063,43 L11.0526281,43 C4.94842688,43 0,37.9337937 0,31.6841469 L0,11.3157859 Z" id="路径" fill="#4D7EFF" fill-rule="nonzero"></path>
            <g id="A" transform="translate(29, 23)" fill="#FFFFFF" fill-rule="nonzero">
                <path d="M4.27701674,0 L0,12 L1.33942161,12 L2.49619482,8.63865546 L7.48858447,8.63865546 L8.64535769,12 L10,12 L5.72298326,0 L4.27701674,0 Z M2.89193303,7.4789916 L4.97716895,1.4789916 L5.03805175,1.4789916 L7.09284627,7.4789916 L2.89193303,7.4789916 Z" id="形状"></path>
            </g>
            <g id="z" transform="translate(13, 4)" fill-rule="nonzero">
                <g id="路径">
                    <use fill="black" fill-opacity="1" filter="url(#filter-2)" xlink:href="#path-1"></use>
                    <use fill="#F5F5F5" xlink:href="#path-1"></use>
                </g>
            </g>
            <g id="R" transform="translate(2, 23)" fill="#FFFFFF" fill-rule="nonzero">
                <path d="M0,0 L0,12 L1.28795812,12 L1.28795812,6.84033613 L4.68062827,6.84033613 C5.38743455,6.84033613 5.92146597,6.97478992 6.29842932,7.27731092 C6.70680628,7.57983193 6.94240838,8.10084034 7.0052356,8.80672269 L7.14659686,10.4033613 C7.19371728,11.0756303 7.35078534,11.5966387 7.60209424,12 L9,12 C8.67015707,11.5630252 8.46596859,10.9747899 8.40314136,10.2352941 L8.23036649,8.38655462 C8.10471204,7.17647059 7.5078534,6.45378151 6.43979058,6.20168067 L6.43979058,6.16806723 C7.08376963,6 7.58638743,5.66386555 7.96335079,5.12605042 C8.30890052,4.60504202 8.48167539,4.01680672 8.48167539,3.34453782 C8.48167539,2.23529412 8.13612565,1.39495798 7.47643979,0.823529412 C6.83246073,0.268907563 5.95287958,0 4.83769634,0 L0,0 Z M1.28795812,1.19327731 L4.68062827,1.19327731 C5.54450262,1.19327731 6.18848168,1.37815126 6.59685864,1.74789916 C6.97382199,2.10084034 7.17801047,2.65546218 7.17801047,3.39495798 C7.17801047,4.10084034 6.97382199,4.63865546 6.58115183,5.02521008 C6.14136126,5.42857143 5.4973822,5.64705882 4.68062827,5.64705882 L1.28795812,5.64705882 L1.28795812,1.19327731 Z" id="形状"></path>
            </g>
        </g>
    </g>
</svg>