<?xml version="1.0" encoding="UTF-8"?>
<svg width="154px" height="32px" viewBox="0 0 154 32" version="1.1" xmlns="http://www.w3.org/2000/svg" xmlns:xlink="http://www.w3.org/1999/xlink">
    <title>logo</title>
    <defs>
        <path d="M-0.0482837529,1.11115667 C-0.0482837529,1.61216547 0.357864124,2.01831335 0.85887292,2.01831335 L5.65530074,2.01831335 C6.20758549,2.01831335 6.65530074,2.4660286 6.65530074,3.01831335 C6.65530074,3.23453744 6.5852175,3.44493693 6.45555693,3.6179716 L-0.100256195,12.3668382 C-0.229916759,12.5398729 -0.3,12.7502724 -0.3,12.9664965 L-0.3,13.4187002 C-0.3,13.8524093 0.0515906994,14.204 0.485299807,14.204 L9.79284333,14.204 C10.2938521,14.204 10.7,13.7978521 10.7,13.2968433 C10.7,12.7958345 10.2938521,12.3896867 9.79284333,12.3896867 L4.31447155,12.3896867 C3.7621868,12.3896867 3.31447155,11.9419714 3.31447155,11.3896867 C3.31447155,11.1737792 3.38434993,10.9636705 3.5136606,10.7907694 L10.0980649,1.98677627 C10.2273756,1.81387524 10.297254,1.60376649 10.297254,1.38785906 L10.297254,0.962220503 C10.297254,0.543466882 9.95778712,0.204 9.5390335,0.204 L0.85887292,0.204 C0.357864124,0.204 -0.0482837529,0.610147877 -0.0482837529,1.11115667 Z" id="path-1"></path>
        <filter x="-127.3%" y="-71.4%" width="354.5%" height="300.0%" filterUnits="objectBoundingBox" id="filter-2">
            <feOffset dx="0" dy="4" in="SourceAlpha" result="shadowOffsetOuter1"></feOffset>
            <feGaussianBlur stdDeviation="4" in="shadowOffsetOuter1" result="shadowBlurOuter1"></feGaussianBlur>
            <feColorMatrix values="0 0 0 0 1   0 0 0 0 1   0 0 0 0 1  0 0 0 0.25 0" type="matrix" in="shadowBlurOuter1"></feColorMatrix>
        </filter>
    </defs>
    <g id="logo" stroke="none" fill="none" fill-rule="evenodd" stroke-width="1">
        <g fill="#000000" id="React-Admin" transform="translate(37, 7)" fill-rule="nonzero">
            <path d="M0.91,4.718 L0.91,14 L2.327,14 L2.327,10.165 L4.836,10.165 C5.369,10.165 5.772,10.269 6.058,10.503 C6.331,10.737 6.5,11.101 6.552,11.621 L6.669,12.778 C6.721,13.298 6.851,13.714 7.072,14 L8.606,14 C8.294,13.662 8.112,13.207 8.06,12.635 L7.904,11.153 C7.8,10.243 7.345,9.697 6.513,9.515 L6.513,9.489 C7.02,9.359 7.423,9.086 7.722,8.67 C7.982,8.293 8.112,7.864 8.112,7.37 C8.112,6.486 7.826,5.823 7.254,5.355 C6.708,4.926 5.954,4.718 5.018,4.718 L0.91,4.718 Z M2.327,5.927 L4.823,5.927 C5.473,5.927 5.941,6.044 6.253,6.291 C6.539,6.525 6.695,6.902 6.695,7.422 C6.695,7.916 6.539,8.293 6.24,8.553 C5.928,8.813 5.46,8.956 4.836,8.956 L2.327,8.956 L2.327,5.927 Z" id="形状"></path>
            <path d="M12.623,7.097 C11.635,7.097 10.842,7.435 10.27,8.124 C9.672,8.8 9.386,9.632 9.386,10.633 C9.386,11.738 9.698,12.609 10.322,13.259 C10.894,13.87 11.687,14.182 12.675,14.182 C13.572,14.182 14.313,13.922 14.898,13.415 C15.366,12.999 15.665,12.466 15.821,11.842 L14.443,11.842 C14.261,12.232 14.066,12.531 13.832,12.713 C13.533,12.934 13.143,13.051 12.662,13.051 C12.116,13.051 11.687,12.869 11.375,12.531 C11.063,12.18 10.894,11.673 10.842,11.023 L15.938,11.023 C15.925,9.827 15.652,8.891 15.132,8.215 C14.56,7.461 13.715,7.097 12.623,7.097 Z M12.662,8.228 C13.754,8.228 14.365,8.813 14.495,9.983 L10.868,9.983 C10.946,9.411 11.141,8.982 11.427,8.683 C11.739,8.371 12.142,8.228 12.662,8.228 Z" id="形状"></path>
            <path d="M20.137,7.097 C19.305,7.097 18.629,7.24 18.135,7.552 C17.563,7.89 17.199,8.436 17.056,9.164 L18.421,9.281 C18.499,8.904 18.694,8.631 19.006,8.449 C19.266,8.293 19.617,8.215 20.046,8.215 C21.06,8.215 21.567,8.683 21.567,9.619 L21.567,9.892 L20.059,9.931 C19.071,9.957 18.291,10.152 17.745,10.542 C17.147,10.945 16.848,11.53 16.848,12.284 C16.848,12.843 17.056,13.298 17.485,13.649 C17.875,14 18.421,14.182 19.123,14.182 C19.721,14.182 20.241,14.065 20.683,13.857 C21.073,13.662 21.398,13.389 21.658,13.051 L21.658,14 L22.932,14 L22.932,9.71 C22.932,8.891 22.724,8.267 22.321,7.838 C21.853,7.344 21.125,7.097 20.137,7.097 Z M21.567,10.893 L21.567,11.283 C21.567,11.803 21.346,12.245 20.93,12.596 C20.514,12.947 20.02,13.129 19.435,13.129 C19.084,13.129 18.798,13.038 18.59,12.869 C18.369,12.7 18.265,12.492 18.265,12.232 C18.265,11.4 18.889,10.958 20.15,10.932 L21.567,10.893 Z" id="形状"></path>
            <path d="M27.495,7.097 C26.455,7.097 25.649,7.448 25.064,8.15 C24.518,8.8 24.245,9.632 24.245,10.646 C24.245,11.686 24.518,12.518 25.077,13.168 C25.649,13.844 26.442,14.182 27.469,14.182 C28.327,14.182 29.029,13.961 29.549,13.532 C30.069,13.09 30.42,12.414 30.576,11.517 L29.211,11.517 C29.081,12.531 28.509,13.051 27.482,13.051 C26.884,13.051 26.442,12.83 26.143,12.414 C25.818,11.985 25.662,11.387 25.662,10.633 C25.662,9.879 25.818,9.281 26.156,8.865 C26.481,8.436 26.923,8.228 27.495,8.228 C27.963,8.228 28.34,8.332 28.626,8.553 C28.912,8.761 29.094,9.099 29.185,9.554 L30.55,9.554 C30.42,8.722 30.082,8.098 29.562,7.682 C29.042,7.292 28.353,7.097 27.495,7.097 Z" id="路径"></path>
            <path d="M33.8,5.108 L32.422,5.68 L32.422,7.279 L31.174,7.279 L31.174,8.423 L32.422,8.423 L32.422,12.323 C32.422,12.856 32.539,13.259 32.799,13.545 C33.059,13.844 33.488,14 34.06,14 L35.165,14 L35.165,12.856 L34.281,12.856 C34.112,12.856 33.995,12.804 33.917,12.726 C33.839,12.635 33.8,12.505 33.8,12.323 L33.8,8.423 L35.334,8.423 L35.334,7.279 L33.8,7.279 L33.8,5.108 Z" id="路径"></path>
            <path d="M43.563,4.718 L39.988,14 L41.496,14 L42.367,11.608 L46.358,11.608 L47.229,14 L48.75,14 L45.175,4.718 L43.563,4.718 Z M42.796,10.438 L44.343,6.239 L44.395,6.239 L45.929,10.438 L42.796,10.438 Z" id="形状"></path>
            <path d="M54.366,4.536 L54.366,8.28 C53.82,7.487 53.131,7.097 52.312,7.097 C51.35,7.097 50.583,7.448 50.037,8.15 C49.517,8.8 49.27,9.619 49.27,10.607 C49.27,11.634 49.53,12.479 50.05,13.129 C50.609,13.831 51.389,14.182 52.377,14.182 C53.287,14.182 53.989,13.844 54.457,13.194 L54.457,14 L55.744,14 L55.744,4.536 L54.366,4.536 Z M52.624,8.215 C53.131,8.215 53.547,8.41 53.885,8.826 C54.223,9.268 54.405,9.853 54.405,10.581 L54.405,10.698 C54.405,11.374 54.262,11.92 53.976,12.349 C53.638,12.817 53.183,13.064 52.585,13.064 C51.909,13.064 51.402,12.817 51.09,12.336 C50.817,11.92 50.687,11.348 50.687,10.607 C50.687,9.866 50.83,9.294 51.116,8.904 C51.441,8.436 51.948,8.215 52.624,8.215 Z" id="形状"></path>
            <path d="M60.528,7.097 C59.852,7.097 59.228,7.396 58.682,8.02 L58.682,7.279 L57.304,7.279 L57.304,14 L58.682,14 L58.682,9.957 C58.682,9.489 58.812,9.086 59.098,8.761 C59.358,8.423 59.722,8.254 60.164,8.254 C61.074,8.254 61.542,8.774 61.542,9.84 L61.542,14 L62.92,14 L62.92,9.866 C62.92,9.372 63.05,8.969 63.31,8.683 C63.57,8.397 63.882,8.254 64.272,8.254 C64.792,8.254 65.182,8.371 65.416,8.631 C65.65,8.878 65.767,9.281 65.767,9.827 L65.767,14 L67.145,14 L67.145,9.593 C67.145,8.839 66.911,8.241 66.469,7.786 C66.014,7.318 65.442,7.097 64.753,7.097 C64.298,7.097 63.921,7.175 63.609,7.344 C63.271,7.513 62.946,7.812 62.647,8.228 C62.231,7.474 61.516,7.097 60.528,7.097 Z" id="路径"></path>
            <path d="M69.68,4.588 C69.407,4.588 69.186,4.666 69.004,4.848 C68.822,5.017 68.731,5.238 68.731,5.511 C68.731,5.771 68.822,6.005 69.004,6.187 C69.186,6.356 69.407,6.447 69.68,6.447 C69.94,6.447 70.174,6.356 70.356,6.187 C70.538,6.005 70.642,5.784 70.642,5.511 C70.642,5.238 70.551,5.017 70.369,4.848 C70.187,4.666 69.953,4.588 69.68,4.588 Z M68.991,7.279 L68.991,14 L70.369,14 L70.369,7.279 L68.991,7.279 Z" id="形状"></path>
            <path d="M75.634,7.097 C75.218,7.097 74.841,7.175 74.503,7.357 C74.165,7.526 73.866,7.773 73.606,8.111 L73.606,7.279 L72.228,7.279 L72.228,14 L73.606,14 L73.606,9.957 C73.658,9.411 73.853,8.982 74.165,8.67 C74.451,8.384 74.802,8.254 75.192,8.254 C76.232,8.254 76.765,8.826 76.765,9.97 L76.765,14 L78.143,14 L78.143,9.853 C78.143,8.007 77.298,7.097 75.634,7.097 Z" id="路径"></path>
        </g>
        <g id="编组">
            <path d="M0,8.42105 C0,3.77023 3.77023,0 8.42105,0 L23.5789,0 C28.2298,0 32,3.77023 32,8.42105 L32,23.5789 C32,28.2298 28.2298,32 23.5789,32 L8.42105,32 C3.77023,32 0,28.2298 0,23.5789 L0,8.42105 Z" id="路径" fill="#4D7EFF" fill-rule="nonzero"></path>
            <g id="A" transform="translate(22, 13)" fill="#FFFFFF" fill-rule="nonzero">
                <path d="M3.372,4.432 L0,13 L1.056,13 L1.968,10.6 L5.904,10.6 L6.816,13 L7.884,13 L4.512,4.432 L3.372,4.432 Z M2.28,9.772 L3.924,5.488 L3.972,5.488 L5.592,9.772 L2.28,9.772 Z" id="形状"></path>
            </g>
            <g id="z" transform="translate(10.3, 2.796)" fill-rule="nonzero">
                <g id="路径">
                    <use fill="black" fill-opacity="1" filter="url(#filter-2)" xlink:href="#path-1"></use>
                    <use fill="#F5F5F5" xlink:href="#path-1"></use>
                </g>
            </g>
            <g id="R" transform="translate(1, 13)" fill="#FFFFFF" fill-rule="nonzero">
                <path d="M0.864,4.432 L0.864,13 L1.848,13 L1.848,9.316 L4.44,9.316 C4.98,9.316 5.388,9.412 5.676,9.628 C5.988,9.844 6.168,10.216 6.216,10.72 L6.324,11.86 C6.36,12.34 6.48,12.712 6.672,13 L7.74,13 C7.488,12.688 7.332,12.268 7.284,11.74 L7.152,10.42 C7.056,9.556 6.6,9.04 5.784,8.86 L5.784,8.836 C6.276,8.716 6.66,8.476 6.948,8.092 C7.212,7.72 7.344,7.3 7.344,6.82 C7.344,6.028 7.08,5.428 6.576,5.02 C6.084,4.624 5.412,4.432 4.56,4.432 L0.864,4.432 Z M1.848,5.284 L4.44,5.284 C5.1,5.284 5.592,5.416 5.904,5.68 C6.192,5.932 6.348,6.328 6.348,6.856 C6.348,7.36 6.192,7.744 5.892,8.02 C5.556,8.308 5.064,8.464 4.44,8.464 L1.848,8.464 L1.848,5.284 Z" id="形状"></path>
            </g>
        </g>
    </g>
</svg>