<svg
  className="fill-current"
  width="20"
  height="20"
  viewBox="0 0 20 20"
  fill="none"
  xmlns="http://www.w3.org/2000/svg"
>
  <path
    d="M5.78381 4.16645C5.78351 4.84504 5.37181 5.45569 4.74286 5.71045C4.11391 5.96521 3.39331 5.81321 2.92083 5.32613C2.44836 4.83904 2.31837 4.11413 2.59216 3.49323C2.86596 2.87233 3.48886 2.47942 4.16715 2.49978C5.06804 2.52682 5.78422 3.26515 5.78381 4.16645ZM5.83381 7.06645H2.50048V17.4998H5.83381V7.06645ZM11.1005 7.06645H7.78381V17.4998H11.0672V12.0248C11.0672 8.97475 15.0422 8.69142 15.0422 12.0248V17.4998H18.3338V10.8914C18.3338 5.74978 12.4505 5.94145 11.0672 8.46642L11.1005 7.06645Z"
    fill=""
  />
</svg>
